# xmcd
#
# Track frame offsets:
#	150
#	13787
#	29094
#	39273
#	47895
#	65318
#	70998
#	84839
#	97789
#	110676
#	121598
#	135441
#
# Disc length: 1896 seconds
#
# Revision: 1
# Processed by: cddbd v1.5.2PL0 Copyright (c) Steve Scherf et al.
# Submitted via: audiograbber 1.83.01
#
DISCID=9307660c
DTITLE=Catclaw Creek - Catclaw Creek
DYEAR=2002
DGENRE=Bluegrass
TTITLE0=Catclaw Creek
TTITLE1=Ugly Girl
TTITLE2=Sipp'n Cider
TTITLE3=Lily of the Valley/ Scotland the Brave
TTITLE4=Irene Goodnight
TTITLE5=He's Got the Whole World in His Hands
TTITLE6=Joshua
TTITLE7=Grandfather's Clock
TTITLE8=Rivers of Texas
TTITLE9=This Land Is Your Land
TTITLE10=Homegrown Tomatoes
TTITLE11=Rosewood Casket
EXTD=
EXTT0=
EXTT1=
EXTT2=
EXTT3=
EXTT4=
EXTT5=
EXTT6=
EXTT7=
EXTT8=
EXTT9=
EXTT10=
EXTT11=
PLAYORDER=
